<svg xmlns="http://www.w3.org/2000/svg" id="Layer_1" data-name="Layer 1" viewBox="0 0 365.14 368.04"><defs><style>.cls-1{fill:#f26b3d}.cls-2{fill:#fca468}.cls-3{fill:#fca338}.cls-4{fill:#fff}.cls-5{fill:#a5664a}</style></defs><circle cx="89" cy="89" r="88.5" class="cls-1"/><path d="M462,190a88,88,0,1,1-88,88,88.1,88.1,0,0,1,88-88m0-1a89,89,0,1,0,89,89,89,89,0,0,0-89-89Z" class="cls-1" transform="translate(-373 -189)"/><polygon points="262.98 6.19 364.25 169.51 172.09 171.14 262.98 6.19" class="cls-2"/><path d="M636,196.18,736.35,358l-190.41,1.61L636,196.18m0-2L544.23,360.65,738.14,359,636,194.2Z" class="cls-2" transform="translate(-373 -189)"/><rect width="159" height="159" x="7.5" y="196.5" class="cls-3"/><path d="M539,386V544H381V386H539m1-1H380V545H540V385Z" class="cls-4" transform="translate(-373 -189)"/><polygon points="188.71 321.51 188.46 229.18 268.3 182.79 348.39 228.75 348.64 321.08 268.8 367.46 188.71 321.51" class="cls-5"/><path d="M641.3,372.37,720.89,418l.25,91.75-79.34,46.1-79.59-45.67L562,418.46l79.34-46.09m0-1.15L561,417.89l.25,92.91L641.8,557l80.34-46.67-.25-92.91L641.3,371.22Z" class="cls-5" transform="translate(-373 -189)"/></svg>