<svg xmlns="http://www.w3.org/2000/svg" id="Layer_1" data-name="Layer 1" viewBox="0 0 388.92 318.5"><defs><style>.cls-1{fill:#f26b3d}.cls-1,.cls-2,.cls-3,.cls-6{stroke:#fff}.cls-1,.cls-2,.cls-3,.cls-4,.cls-5,.cls-6{stroke-miterlimit:10}.cls-1,.cls-5{stroke-width:5px}.cls-2{fill:#e2a77f}.cls-2,.cls-6{stroke-width:4px}.cls-3{fill:#d1d1d1}.cls-4{fill:#6d6b69;stroke-width:3px;stroke:#6d6b69}.cls-5{stroke:#6d6b69;fill:none}.cls-6{fill:#fca338}</style></defs><path d="M650.69,229.09a44.9,44.9,0,0,0-5.6.36,33.8,33.8,0,0,0-33.56-33.84,33.05,33.05,0,0,0-16.73,4.53A63.23,63.23,0,0,0,536.56,161c-34.91,0-63.21,28.7-63.21,64.11,0,1.44.06,2.87.15,4.28a46.68,46.68,0,0,0-5.19-.3c-25,0-45.31,20.57-45.31,46a45.8,45.8,0,0,0,36.92,45.16v.8H644.53v-.43a46.4,46.4,0,0,0,6.16.43c25,0,45.31-20.58,45.31-46S675.71,229.09,650.69,229.09Z" class="cls-1" transform="translate(-371.5 -158.5)"/><rect width="217" height="190" x="2" y="126.5" class="cls-2"/><rect width="167" height="29.45" x="27.5" y="150.55" class="cls-3"/><rect width="167" height="28.87" x="27" y="202.13" class="cls-3"/><rect width="167" height="27.34" x="27" y="256.66" class="cls-3"/><ellipse cx="45.5" cy="165.24" class="cls-4" rx="5.5" ry="4.2"/><line x1="63.5" x2="175.5" y1="166" y2="166" class="cls-5"/><ellipse cx="45.5" cy="216.32" class="cls-4" rx="5.5" ry="4.2"/><ellipse cx="45.5" cy="269.9" class="cls-4" rx="5.5" ry="4.2"/><line x1="62.5" x2="174.5" y1="217" y2="217" class="cls-5"/><line x1="68.5" x2="169" y1="270.02" y2="270.02" class="cls-5"/><path d="M719.26,309.48a38.7,38.7,0,0,0-4.84.31,29.23,29.23,0,0,0-29-29.27A28.48,28.48,0,0,0,671,284.44a54.64,54.64,0,0,0-50.33-33.86C590.47,250.58,566,275.41,566,306c0,1.25,0,2.48.13,3.71a38.91,38.91,0,0,0-4.48-.27c-21.63,0-39.16,17.8-39.16,39.76a39.62,39.62,0,0,0,31.91,39.07V389H713.94v-.37a38.85,38.85,0,0,0,5.32.37c21.62,0,39.16-17.8,39.16-39.76S740.88,309.48,719.26,309.48Z" class="cls-6" transform="translate(-371.5 -158.5)"/></svg>